General

Format                           : MPEG-4
Format profile                   : Base Media
Codec ID                         : isom
File size                        : 27.9 MiB
Duration                         : 3mn 19s
Overall bit rate                 : 1 176 Kbps
Encoded date                     : UTC 2012-02-03 16:03:13
Tagged date                      : UTC 2012-02-03 16:03:13

Video
ID                               : 1
Format                           : AVC
Format/Info                      : Advanced Video Codec
Format profile                   : High@L3.0
Format settings, CABAC           : Yes
Format settings, ReFrames        : 2 frames
Format settings, GOP             : M=2, N=5
Codec ID                         : avc1
Codec ID/Info                    : Advanced Video Coding
Duration                         : 3mn 19s
Bit rate mode                    : Variable
Bit rate                         : 1 094 Kbps
Maximum bit rate                 : 2 538 Kbps
Width                            : 720 pixels
Height                           : 480 pixels
Display aspect ratio             : 16:9
Original display aspect ratio    : 16:9
Frame rate mode                  : Constant
Frame rate                       : 25.000 fps
Standard                         : NTSC
Color space                      : YUV
Chroma subsampling               : 4:2:0
Bit depth                        : 8 bits
Scan type                        : Progressive
Bits/(Pixel*Frame)               : 0.127
Stream size                      : 26.1 MiB (94%)

Audio
ID                               : 2
Format                           : AAC
Format/Info                      : Advanced Audio Codec
Format profile                   : LC
Codec ID                         : 40
Duration                         : 3mn 19s
Bit rate mode                    : Variable
Bit rate                         : 68.1 Kbps
Maximum bit rate                 : 77.2 Kbps
Channel(s)                       : 2 channels
Channel positions                : Front: L R
Sampling rate                    : 44.1 KHz
Compression mode                 : Lossy
Stream size                      : 1.62 MiB (6%)

